# xmcd
#
# Track frame offsets:
#	150
#	11167
#	25127
#	40254
#	57095
#	71122
#	86701
#	96781
#	116313
#	130834
#	142506
#	158583
#	177881
#
# Disc length: 2599 seconds
#
# Revision: 0
# Processed by: cddbd v1.5.1PL0 Copyright (c) Steve Scherf et al.
# Submitted via: dBpowerAMP V4.0
#
DISCID=9e0a250d
DTITLE=Johnny Bush - Honkytonic
DYEAR=1900
DGENRE=Country
TTITLE0=What Made Milwaukee Famous
TTITLE1=Leave My Mama Out Of This
TTITLE2=Ol' What's Her Name (w/Kevin Fowler)
TTITLE3=Tonight Her Memory's Raisin' Hell
TTITLE4=Jones On The Jukebox (w/Tommy Alverson)
TTITLE5=The Door
TTITLE6=I'll Be There
TTITLE7=Some People Just Get Lucky (w/Stephanie Urbina Jones)
TTITLE8=Puttin' Out An Old Flame
TTITLE9=Each Time
TTITLE10=Did We Have To Come This Far To Say Goodbye
TTITLE11=I Gotta Get Drunk (w/Cooder Graw and Willie Nelson)
TTITLE12=Whiskey River (w/Willie Nelson)
EXTD=radio vagabond - coming soon!
EXTT0=
EXTT1=
EXTT2=
EXTT3=
EXTT4=
EXTT5=
EXTT6=
EXTT7=
EXTT8=
EXTT9=
EXTT10=
EXTT11=
EXTT12=
PLAYORDER=
